<svg width="109" height="96" viewBox="0 0 109 96" fill="none" xmlns="http://www.w3.org/2000/svg">
<path d="M31.8119 23.7705C31.349 23.7705 30.9703 24.1043 30.9703 24.5124V28.9634C30.9703 29.3714 31.349 29.7052 31.8119 29.7052H72.208C72.6708 29.7052 73.0495 29.3714 73.0495 28.9634V24.5124C73.0495 24.1043 72.6708 23.7705 72.208 23.7705H31.8119ZM51.1683 37.1236H31.8119C31.349 37.1236 30.9703 37.4575 30.9703 37.8655V42.3165C30.9703 42.7245 31.349 43.0583 31.8119 43.0583H51.1683C51.6312 43.0583 52.0099 42.7245 52.0099 42.3165V37.8655C52.0099 37.4575 51.6312 37.1236 51.1683 37.1236ZM46.1188 79.594H22.5545V14.3121H81.4654V43.9856C81.4654 44.3937 81.8441 44.7275 82.307 44.7275H88.1981C88.6609 44.7275 89.0396 44.3937 89.0396 43.9856V10.6029C89.0396 8.96154 87.5353 7.6355 85.6733 7.6355H18.3466C16.4846 7.6355 14.9802 8.96154 14.9802 10.6029V83.3032C14.9802 84.9445 16.4846 86.2705 18.3466 86.2705H46.1188C46.5817 86.2705 46.9604 85.9367 46.9604 85.5287V80.3358C46.9604 79.9278 46.5817 79.594 46.1188 79.594ZM92.406 71.4337H77.2575V68.0398C82.1281 66.7601 85.6733 62.7913 85.6733 58.0806C85.6733 52.3406 80.4029 47.6948 73.8911 47.6948C67.3794 47.6948 62.1089 52.3406 62.1089 58.0806C62.1089 62.782 65.6541 66.7601 70.5248 68.0398V71.4337H55.3763C54.4505 71.4337 53.6931 72.1014 53.6931 72.9174V87.0124C53.6931 87.8284 54.4505 88.496 55.3763 88.496H92.406C93.3317 88.496 94.0891 87.8284 94.0891 87.0124V72.9174C94.0891 72.1014 93.3317 71.4337 92.406 71.4337ZM68.6312 58.0806C68.6312 55.5213 70.9877 53.4441 73.8911 53.4441C76.7946 53.4441 79.151 55.5213 79.151 58.0806C79.151 60.6399 76.7946 62.7171 73.8911 62.7171C70.9877 62.7171 68.6312 60.6399 68.6312 58.0806ZM87.5669 82.7468H60.2154V77.183H87.5669V82.7468Z" fill="#00ADB5"/>
</svg>
