<svg width="109" height="96" viewBox="0 0 109 96" fill="none" xmlns="http://www.w3.org/2000/svg">
<path d="M46.2345 61.7933C46.5442 62.1742 46.9524 62.4847 47.4253 62.6988C47.8982 62.913 48.4222 63.0247 48.9539 63.0247C49.4856 63.0247 50.0096 62.913 50.4825 62.6988C50.9554 62.4847 51.3636 62.1742 51.6733 61.7933L73.828 34.7161C74.2277 34.2247 73.828 33.5385 73.1442 33.5385H68.2104C67.1374 33.5385 66.117 33.9928 65.4858 34.7718L48.9592 54.9869L41.4691 45.8252C40.8379 45.0555 39.828 44.5919 38.7444 44.5919H33.8107C33.1269 44.5919 32.7271 45.2781 33.1269 45.7695L46.2345 61.7933Z" fill="#00ADB5"/>
<path d="M93.2475 11.1906H15.8218C13.9598 11.1906 12.4554 12.5166 12.4554 14.1579V82.4072C12.4554 84.0485 13.9598 85.3745 15.8218 85.3745H93.2475C95.1095 85.3745 96.6139 84.0485 96.6139 82.4072V14.1579C96.6139 12.5166 95.1095 11.1906 93.2475 11.1906ZM89.0396 78.698H20.0297V17.8671H89.0396V78.698Z" fill="#00ADB5"/>
</svg>
