<svg width="30" height="30" viewBox="0 0 30 30" fill="none" xmlns="http://www.w3.org/2000/svg">
<path fill-rule="evenodd" clip-rule="evenodd" d="M3.08625 8.71122C3.17333 8.62391 3.27679 8.55464 3.39068 8.50738C3.50458 8.46012 3.62668 8.43579 3.75 8.43579C3.87331 8.43579 3.99541 8.46012 4.10931 8.50738C4.22321 8.55464 4.32666 8.62391 4.41375 8.71122L15 19.2993L25.5862 8.71122C25.6734 8.62405 25.7769 8.55491 25.8908 8.50774C26.0047 8.46056 26.1267 8.43628 26.25 8.43628C26.3733 8.43628 26.4953 8.46056 26.6092 8.50774C26.7231 8.55491 26.8266 8.62405 26.9137 8.71122C27.0009 8.79838 27.0701 8.90186 27.1172 9.01575C27.1644 9.12963 27.1887 9.2517 27.1887 9.37497C27.1887 9.49824 27.1644 9.6203 27.1172 9.73419C27.0701 9.84807 27.0009 9.95155 26.9137 10.0387L15.6637 21.2887C15.5767 21.376 15.4732 21.4453 15.3593 21.4926C15.2454 21.5398 15.1233 21.5641 15 21.5641C14.8767 21.5641 14.7546 21.5398 14.6407 21.4926C14.5268 21.4453 14.4233 21.376 14.3362 21.2887L3.08625 10.0387C2.99894 9.95163 2.92967 9.84818 2.88241 9.73428C2.83515 9.62038 2.81082 9.49828 2.81082 9.37497C2.81082 9.25165 2.83515 9.12955 2.88241 9.01565C2.92967 8.90176 2.99894 8.7983 3.08625 8.71122Z" fill="black"/>
</svg>
