<svg width="109" height="96" viewBox="0 0 109 96" fill="none" xmlns="http://www.w3.org/2000/svg">
<path d="M60.9517 39.4102C58.5217 39.4102 56.6386 41.07 56.6386 43.1194C56.6386 45.1687 58.5217 46.8286 60.9517 46.8286C63.1714 46.8286 65.0545 45.1687 65.0545 43.1194C65.0545 41.07 63.1714 39.4102 60.9517 39.4102ZM31.4963 39.4102C29.0662 39.4102 27.1832 41.07 27.1832 43.1194C27.1832 45.1687 29.0662 46.8286 31.4963 46.8286C33.716 46.8286 35.599 45.1687 35.599 43.1194C35.599 41.07 33.716 39.4102 31.4963 39.4102Z" fill="#00ADB5"/>
<path d="M94.7203 32.3627C89.6603 26.2425 82.591 22.1531 74.8379 20.3078V20.3171C73.039 18.5552 71.0087 16.9324 68.7364 15.4858C51.5155 4.45098 27.341 7.81708 14.7698 22.997C4.63924 35.3301 5.07055 51.9194 15.401 63.7054L15.4852 76.0014C15.4852 76.2981 15.5378 76.5949 15.643 76.8731C16.2005 78.4402 18.0941 79.3026 19.8614 78.8111L33.1795 75.1112C36.7036 76.2147 40.3434 76.8453 43.9623 77.0214L43.9097 77.0585C53.2828 83.0767 65.5699 84.8849 76.8366 81.6023L90.2073 85.4413C90.5439 85.5341 90.8911 85.5897 91.2488 85.5897C93.1108 85.5897 94.6151 84.2637 94.6151 82.6223V70.1965C103.883 59.106 104.125 43.7778 94.7203 32.3627ZM34.6522 68.5274L33.3899 68.0637L22.9753 70.9384L22.8701 61.2944L22.0285 60.4599C13.1287 50.8901 12.5396 37.1012 20.8713 26.9844C31.0124 14.7255 50.453 12.0177 64.3181 20.8642C78.2253 29.7755 81.3076 46.8842 71.2611 59.0689C62.8348 69.2599 47.7494 73.0248 34.6522 68.5274ZM87.7772 66.951L86.9357 67.8783L87.0408 77.5222L76.7314 74.4621L75.4691 74.9258C69.578 76.8545 63.2977 77.0122 57.4802 75.5749L57.4592 75.5656C65.2333 73.4606 72.2816 69.195 77.3626 63.0563C85.3998 53.2918 86.7042 41.0237 82.0334 30.5637L82.0965 30.6008C84.5161 32.1309 86.7358 34.0411 88.6188 36.3501C96.2562 45.586 95.8249 58.1602 87.7772 66.951Z" fill="#00ADB5"/>
<path d="M46.224 39.4102C43.7939 39.4102 41.9109 41.07 41.9109 43.1194C41.9109 45.1687 43.7939 46.8286 46.224 46.8286C48.4437 46.8286 50.3267 45.1687 50.3267 43.1194C50.3267 41.07 48.4437 39.4102 46.224 39.4102Z" fill="#00ADB5"/>
</svg>
