<svg width="109" height="96" viewBox="0 0 109 96" fill="none" xmlns="http://www.w3.org/2000/svg">
<path d="M94.4027 74.1385H22.0265V16.275C22.0265 15.867 21.6477 15.5332 21.1849 15.5332H15.2938C14.8309 15.5332 14.4522 15.867 14.4522 16.275V80.0733C14.4522 80.4813 14.8309 80.8151 15.2938 80.8151H94.4027C94.8656 80.8151 95.2443 80.4813 95.2443 80.0733V74.8804C95.2443 74.4724 94.8656 74.1385 94.4027 74.1385ZM33.1564 59.8303C33.4825 60.1178 34.0085 60.1178 34.3451 59.8303L48.894 47.0707L62.3173 58.9772C62.6434 59.2647 63.1799 59.2647 63.506 58.9772L92.4776 33.4486C92.8037 33.1612 92.8037 32.6882 92.4776 32.4008L88.3117 28.7287C88.1536 28.5906 87.94 28.5132 87.7174 28.5132C87.4948 28.5132 87.2812 28.5906 87.123 28.7287L62.9275 50.0473L49.5252 38.1593C49.3671 38.0213 49.1535 37.9438 48.9309 37.9438C48.7083 37.9438 48.4947 38.0213 48.3365 38.1593L29.0011 55.1011C28.8445 55.2405 28.7566 55.4288 28.7566 55.625C28.7566 55.8212 28.8445 56.0095 29.0011 56.1489L33.1564 59.8303Z" fill="#00ADB5"/>
</svg>
