<svg width="47" height="47" viewBox="0 0 47 47" fill="none" xmlns="http://www.w3.org/2000/svg">
<path d="M23.547 3.7334C12.3181 3.7334 3.21335 12.659 3.21335 23.6669C3.21335 34.6748 12.3181 43.6004 23.547 43.6004C34.776 43.6004 43.8807 34.6748 43.8807 23.6669C43.8807 12.659 34.776 3.7334 23.547 3.7334ZM23.547 40.2188C14.2244 40.2188 6.66282 32.8061 6.66282 23.6669C6.66282 14.5277 14.2244 7.11497 23.547 7.11497C32.8697 7.11497 40.4313 14.5277 40.4313 23.6669C40.4313 32.8061 32.8697 40.2188 23.547 40.2188Z" fill="#333333"/>
<path d="M23.547 7.11499C14.2244 7.11499 6.66281 14.5278 6.66281 23.6669C6.66281 32.8061 14.2244 40.2188 23.547 40.2188C32.8697 40.2188 40.4313 32.8061 40.4313 23.6669C40.4313 14.5278 32.8697 7.11499 23.547 7.11499ZM30.9952 23.9428L21.0825 31.0129C21.0281 31.0512 20.9641 31.0741 20.8974 31.079C20.8306 31.0839 20.7638 31.0707 20.7042 31.0408C20.6447 31.0109 20.5946 30.9655 20.5597 30.9096C20.5247 30.8536 20.5062 30.7893 20.5061 30.7237V16.5923C20.5058 16.5266 20.5242 16.4621 20.5591 16.4059C20.594 16.3498 20.644 16.3042 20.7037 16.2743C20.7634 16.2443 20.8304 16.2312 20.8973 16.2362C20.9641 16.2413 21.0282 16.2645 21.0825 16.3031L30.9952 23.3688C31.042 23.4013 31.0802 23.4443 31.1066 23.4942C31.1329 23.5442 31.1467 23.5996 31.1467 23.6558C31.1467 23.712 31.1329 23.7674 31.1066 23.8174C31.0802 23.8673 31.042 23.9103 30.9952 23.9428Z" fill="#E6E6E6"/>
<path d="M30.9952 23.3687L21.0825 16.303C21.0282 16.2644 20.9641 16.2413 20.8973 16.2362C20.8304 16.2311 20.7634 16.2442 20.7037 16.2742C20.6441 16.3041 20.594 16.3497 20.5591 16.4059C20.5242 16.462 20.5059 16.5265 20.5061 16.5922V30.7237C20.5062 30.7893 20.5247 30.8536 20.5597 30.9095C20.5947 30.9654 20.6447 31.0109 20.7042 31.0407C20.7638 31.0706 20.8306 31.0838 20.8974 31.0789C20.9641 31.074 21.0282 31.0512 21.0825 31.0129L30.9952 23.9427C31.042 23.9102 31.0802 23.8672 31.1066 23.8173C31.1329 23.7674 31.1467 23.7119 31.1467 23.6557C31.1467 23.5995 31.1329 23.5441 31.1066 23.4941C31.0802 23.4442 31.042 23.4012 30.9952 23.3687Z" fill="#333333"/>
</svg>
