<svg width="109" height="96" viewBox="0 0 109 96" fill="none" xmlns="http://www.w3.org/2000/svg">
<path d="M96.675 79.2957L69.3551 55.2138C73.5945 50.3825 75.8878 44.4756 75.8878 38.2627C75.8878 30.8258 72.5951 23.8525 66.6409 18.5947C60.6867 13.3369 52.7548 10.4437 44.3284 10.4437C35.9021 10.4437 27.9701 13.3462 22.0159 18.5947C16.0512 23.8432 12.769 30.8258 12.769 38.2627C12.769 45.6904 16.0617 52.6822 22.0159 57.9307C27.9701 63.1885 35.8916 66.0817 44.3284 66.0817C51.3767 66.0817 58.0673 64.0602 63.5481 60.3325L90.868 84.4052C90.9482 84.4758 91.0433 84.5319 91.148 84.5701C91.2527 84.6084 91.3649 84.628 91.4782 84.628C91.5915 84.628 91.7037 84.6084 91.8084 84.5701C91.9131 84.5319 92.0082 84.4758 92.0883 84.4052L96.675 80.3714C96.7551 80.3008 96.8187 80.2169 96.8621 80.1247C96.9055 80.0324 96.9278 79.9335 96.9278 79.8336C96.9278 79.7337 96.9055 79.6348 96.8621 79.5425C96.8187 79.4502 96.7551 79.3664 96.675 79.2957ZM60.9918 52.9512C56.5314 56.8736 50.6193 59.0342 44.3284 59.0342C38.0376 59.0342 32.1255 56.8736 27.6651 52.9512C23.2152 49.0194 20.7641 43.808 20.7641 38.2627C20.7641 32.7175 23.2152 27.4968 27.6651 23.5743C32.1255 19.6518 38.0376 17.4912 44.3284 17.4912C50.6193 17.4912 56.5419 19.6425 60.9918 23.5743C65.4417 27.506 67.8928 32.7175 67.8928 38.2627C67.8928 43.808 65.4417 49.0287 60.9918 52.9512Z" fill="#00ADB5"/>
</svg>
